<svg width="512" height="512" viewBox="0 0 512 512" fill="none" xmlns="http://www.w3.org/2000/svg">
  <!-- Background Circle -->
  <circle cx="256" cy="256" r="240" fill="url(#gradient1)"/>
  
  <!-- Medical Cross -->
  <rect x="220" y="140" width="72" height="232" rx="12" fill="white"/>
  <rect x="140" y="220" width="232" height="72" rx="12" fill="white"/>
  
  <!-- Heart Shape -->
  <path d="M256 380C256 380 160 310 160 240C160 200 190 180 220 200C235 210 245 220 256 235C267 220 277 210 292 200C322 180 352 200 352 240C352 310 256 380 256 380Z" fill="#FF6B9D" opacity="0.9"/>
  
  <!-- Stethoscope Element -->
  <circle cx="330" cy="170" r="25" fill="white" stroke="#4F46E5" stroke-width="6"/>
  <path d="M330 195 L330 240 C330 260 315 275 295 275 L280 275" stroke="#4F46E5" stroke-width="8" stroke-linecap="round"/>
  
  <!-- Plus Signs (decorative) -->
  <circle cx="120" cy="120" r="20" fill="#4F46E5" opacity="0.3"/>
  <path d="M120 110 L120 130 M110 120 L130 120" stroke="white" stroke-width="3" stroke-linecap="round"/>
  
  <circle cx="392" cy="392" r="20" fill="#06B6D4" opacity="0.3"/>
  <path d="M392 382 L392 402 M382 392 L402 392" stroke="white" stroke-width="3" stroke-linecap="round"/>
  
  <!-- Gradient Definition -->
  <defs>
    <linearGradient id="gradient1" x1="0%" y1="0%" x2="100%" y2="100%">
      <stop offset="0%" style="stop-color:#4F46E5;stop-opacity:1" />
      <stop offset="50%" style="stop-color:#06B6D4;stop-opacity:1" />
      <stop offset="100%" style="stop-color:#8B5CF6;stop-opacity:1" />
    </linearGradient>
  </defs>
</svg>